REM DIRINDEX 1\2,1\3
REM DIRNAME cjc039,folder01,folder02
TITLE ""
FILE "3461-3480.mp3" MP3
  TRACK 01 AUDIO
    TITLE "0:"
    INDEX 01 00:00:00
  TRACK 02 AUDIO
    TITLE "2:cjc039_5921"
    INDEX 01 00:00:27
  TRACK 03 AUDIO
    TITLE "0:"
    INDEX 01 00:01:42
  TRACK 04 AUDIO
    TITLE "3:cjc039_5922"
    INDEX 01 00:02:22
  TRACK 05 AUDIO
    TITLE "0:"
    INDEX 01 00:05:03
  TRACK 06 AUDIO
    TITLE "2:cjc039_5923"
    INDEX 01 00:06:55
  TRACK 07 AUDIO
    TITLE "0:"
    INDEX 01 00:07:66
  TRACK 08 AUDIO
    TITLE "3:cjc039_5924"
    INDEX 01 00:08:48
  TRACK 09 AUDIO
    TITLE "0:"
    INDEX 01 00:11:54
  TRACK 10 AUDIO
    TITLE "2:cjc039_5925"
    INDEX 01 00:13:32
  TRACK 11 AUDIO
    TITLE "0:"
    INDEX 01 00:14:35
  TRACK 12 AUDIO
    TITLE "3:cjc039_5926"
    INDEX 01 00:15:19
  TRACK 13 AUDIO
    TITLE "0:"
    INDEX 01 00:17:69
  TRACK 14 AUDIO
    TITLE "2:cjc039_5927"
    INDEX 01 00:19:48
  TRACK 15 AUDIO
    TITLE "0:"
    INDEX 01 00:21:02
  TRACK 16 AUDIO
    TITLE "3:cjc039_5928"
    INDEX 01 00:21:58
  TRACK 17 AUDIO
    TITLE "0:"
    INDEX 01 00:24:47
  TRACK 18 AUDIO
    TITLE "2:cjc039_5929"
    INDEX 01 00:26:26
  TRACK 19 AUDIO
    TITLE "0:"
    INDEX 01 00:27:32
  TRACK 20 AUDIO
    TITLE "3:cjc039_5930"
    INDEX 01 00:28:10
  TRACK 21 AUDIO
    TITLE "0:"
    INDEX 01 00:30:71
  TRACK 22 AUDIO
    TITLE "2:cjc039_5931"
    INDEX 01 00:32:45
  TRACK 23 AUDIO
    TITLE "0:"
    INDEX 01 00:34:65
  TRACK 24 AUDIO
    TITLE "3:cjc039_5932"
    INDEX 01 00:35:41
  TRACK 25 AUDIO
    TITLE "0:"
    INDEX 01 00:40:62
  TRACK 26 AUDIO
    TITLE "2:cjc039_5933"
    INDEX 01 00:42:35
  TRACK 27 AUDIO
    TITLE "0:"
    INDEX 01 00:43:66
  TRACK 28 AUDIO
    TITLE "3:cjc039_5934"
    INDEX 01 00:44:38
  TRACK 29 AUDIO
    TITLE "0:"
    INDEX 01 00:48:42
  TRACK 30 AUDIO
    TITLE "2:cjc039_5935"
    INDEX 01 00:50:13
  TRACK 31 AUDIO
    TITLE "0:"
    INDEX 01 00:51:32
  TRACK 32 AUDIO
    TITLE "3:cjc039_5936"
    INDEX 01 00:52:08
  TRACK 33 AUDIO
    TITLE "0:"
    INDEX 01 00:54:72
  TRACK 34 AUDIO
    TITLE "2:cjc039_5937"
    INDEX 01 00:56:47
  TRACK 35 AUDIO
    TITLE "0:"
    INDEX 01 00:57:72
  TRACK 36 AUDIO
    TITLE "3:cjc039_5938"
    INDEX 01 00:58:48
  TRACK 37 AUDIO
    TITLE "0:"
    INDEX 01 01:02:65
  TRACK 38 AUDIO
    TITLE "2:cjc039_5939"
    INDEX 01 01:04:43
  TRACK 39 AUDIO
    TITLE "0:"
    INDEX 01 01:06:02
  TRACK 40 AUDIO
    TITLE "3:cjc039_5940"
    INDEX 01 01:06:49
  TRACK 41 AUDIO
    TITLE "0:"
    INDEX 01 01:10:41
  TRACK 42 AUDIO
    TITLE "2:cjc039_5941"
    INDEX 01 01:12:21
  TRACK 43 AUDIO
    TITLE "0:"
    INDEX 01 01:13:42
  TRACK 44 AUDIO
    TITLE "3:cjc039_5942"
    INDEX 01 01:14:19
  TRACK 45 AUDIO
    TITLE "0:"
    INDEX 01 01:17:51
  TRACK 46 AUDIO
    TITLE "2:cjc039_5943"
    INDEX 01 01:19:27
  TRACK 47 AUDIO
    TITLE "0:"
    INDEX 01 01:20:71
  TRACK 48 AUDIO
    TITLE "3:cjc039_5944"
    INDEX 01 01:21:55
  TRACK 49 AUDIO
    TITLE "0:"
    INDEX 01 01:25:58
  TRACK 50 AUDIO
    TITLE "2:cjc039_5945"
    INDEX 01 01:27:36
  TRACK 51 AUDIO
    TITLE "0:"
    INDEX 01 01:28:57
  TRACK 52 AUDIO
    TITLE "3:cjc039_5946"
    INDEX 01 01:29:33
  TRACK 53 AUDIO
    TITLE "0:"
    INDEX 01 01:32:53
  TRACK 54 AUDIO
    TITLE "2:cjc039_5947"
    INDEX 01 01:34:28
  TRACK 55 AUDIO
    TITLE "0:"
    INDEX 01 01:35:59
  TRACK 56 AUDIO
    TITLE "3:cjc039_5948"
    INDEX 01 01:36:37
  TRACK 57 AUDIO
    TITLE "0:"
    INDEX 01 01:40:21
  TRACK 58 AUDIO
    TITLE "2:cjc039_5949"
    INDEX 01 01:41:71
  TRACK 59 AUDIO
    TITLE "0:"
    INDEX 01 01:43:02
  TRACK 60 AUDIO
    TITLE "3:cjc039_5950"
    INDEX 01 01:43:58
  TRACK 61 AUDIO
    TITLE "0:"
    INDEX 01 01:46:74
  TRACK 62 AUDIO
    TITLE "2:cjc039_5951"
    INDEX 01 01:48:52
  TRACK 63 AUDIO
    TITLE "0:"
    INDEX 01 01:50:29
  TRACK 64 AUDIO
    TITLE "3:cjc039_5952"
    INDEX 01 01:51:11
  TRACK 65 AUDIO
    TITLE "0:"
    INDEX 01 01:54:72
  TRACK 66 AUDIO
    TITLE "2:cjc039_5953"
    INDEX 01 01:56:51
  TRACK 67 AUDIO
    TITLE "0:"
    INDEX 01 01:57:72
  TRACK 68 AUDIO
    TITLE "3:cjc039_5954"
    INDEX 01 01:58:44
  TRACK 69 AUDIO
    TITLE "0:"
    INDEX 01 02:01:68
  TRACK 70 AUDIO
    TITLE "2:cjc039_5955"
    INDEX 01 02:03:51
  TRACK 71 AUDIO
    TITLE "0:"
    INDEX 01 02:05:05
  TRACK 72 AUDIO
    TITLE "3:cjc039_5956"
    INDEX 01 02:05:58
  TRACK 73 AUDIO
    TITLE "0:"
    INDEX 01 02:09:42
  TRACK 74 AUDIO
    TITLE "2:cjc039_5957"
    INDEX 01 02:11:21
  TRACK 75 AUDIO
    TITLE "0:"
    INDEX 01 02:12:38
  TRACK 76 AUDIO
    TITLE "3:cjc039_5958"
    INDEX 01 02:13:22
  TRACK 77 AUDIO
    TITLE "0:"
    INDEX 01 02:16:38
  TRACK 78 AUDIO
    TITLE "2:cjc039_5959"
    INDEX 01 02:18:14
  TRACK 79 AUDIO
    TITLE "0:"
    INDEX 01 02:19:50
  TRACK 80 AUDIO
    TITLE "3:cjc039_5960"
    INDEX 01 02:20:32
  TRACK 81 AUDIO
    TITLE "0:"
    INDEX 01 02:24:18
